<svg width="19" height="11" viewBox="0 0 19 11" fill="none" xmlns="http://www.w3.org/2000/svg">
<path d="M11.8751 1.54166H14.2501C14.7699 1.54166 15.2846 1.64405 15.7649 1.84297C16.2451 2.0419 16.6815 2.33347 17.049 2.70103C17.4166 3.0686 17.7082 3.50496 17.9071 3.98521C18.106 4.46546 18.2084 4.98018 18.2084 5.5C18.2084 6.01981 18.106 6.53454 17.9071 7.01479C17.7082 7.49503 17.4166 7.9314 17.049 8.29896C16.6815 8.66653 16.2451 8.9581 15.7649 9.15702C15.2846 9.35595 14.7699 9.45833 14.2501 9.45833H11.8751M7.12508 9.45833H4.75008C4.23027 9.45833 3.71554 9.35595 3.23529 9.15702C2.75505 8.9581 2.31868 8.66653 1.95112 8.29896C1.20879 7.55663 0.791748 6.54981 0.791748 5.5C0.791748 4.45018 1.20879 3.44336 1.95112 2.70103C2.69345 1.9587 3.70027 1.54166 4.75008 1.54166H7.12508M6.33342 5.5H12.6667" stroke="#8FE1A1" stroke-width="1.5" stroke-linecap="round" stroke-linejoin="round"/>
</svg>
